# xmcd
#
# Track frame offsets: 
#        150
#        13366
#        39353
#        56492
#        82281
#        98480
#        112630
#        119398
#        141701
#        155839
#        174643
#        189940
#        199550
#        210694
#        230662
#
# Disc length: 3372 seconds
#
# Revision: 0
# Processed by: cddbd v1.5.2PL0 Copyright (c) Steve Scherf et al.
# Submitted via: ExactAudioCopyFreeDBPlugin 1.0
#
DISCID=d10d2a0f
DTITLE=Various Artist - Gospel Collection CD1
DYEAR=1992
DGENRE=Gospel
TTITLE0=The London Community Gospel Choir - Oh Happy Day
TTITLE1=The London Community Gospel Choir - Little Drummer Boy
TTITLE2=The London Community Gospel Choir - We Three Kings
TTITLE3=The London Community Gospel Choir - Precious Lord
TTITLE4=The London Community Gospel Choir - O Little Town Of Behtlehem
TTITLE5=The London Community Gospel Choir - Angels From The Realms Of 
TTITLE5=Glory
TTITLE6=The London Community Gospel Choir - Sleep In Heavenly Peace
TTITLE7=The London Community Gospel Choir - Count Your Blessings
TTITLE8=The London Community Gospel Choir - Kumbaya
TTITLE9=The London Community Gospel Choir - Once In Royal David's City
TTITLE10=The London Community Gospel Choir - The Old Rugged Cross
TTITLE11=Inspirational Singers - Give Me That Old Time Religion
TTITLE12=Inspirational Singers - He's Got The Whole World In His Hands
TTITLE13=Sandra Crouch - Angel We Have Heart On High
TTITLE14=The Mighty Clouds Of Joy - Lord I Thank You
EXTD=
EXTT0=
EXTT1=
EXTT2=
EXTT3=
EXTT4=
EXTT5=
EXTT6=
EXTT7=
EXTT8=
EXTT9=
EXTT10=
EXTT11=
EXTT12=
EXTT13=
EXTT14=
PLAYORDER=
